<svg viewBox="0 0 620.01 458.97" xmlns="http://www.w3.org/2000/svg"><g fill="#fff"><text font-family="Bitter-Regular, Bitter" font-size="137.01" letter-spacing="-.03em" transform="matrix(1.54 0 0 1 177.51 118.96)">F<tspan font-size="99.98" letter-spacing="-.03em" x="74.12" y="0">ood</tspan><tspan x="240.89" y="0"></tspan><tspan x="0" xml:space="preserve" y="123.44"> F</tspan><tspan font-size="99.98" letter-spacing="-.03em" x="101.66" y="123.44">ight</tspan></text><path d="m.07 197.47c6.65 22.7 27.77 35.12 40.8 53.62a54 54 0 0 1 7.83 15.76c1.91 6.51 2.69 13.31 5.87 19.39 4.7 9 13.18 14.85 21.79 19.72 11.11 6.28 23.37 11.55 31.32 22a1.55 1.55 0 0 0 1.69.69c7.21-2.59 10-9.7 12.91-16.18 4.1-9 9.85-15.59 20.08-17.35 20.16-3.48 38.66 11.51 50.31 26.29 25.33 32.17 31.58 76.09 60.33 105.88 14.08 14.58 32.83 22.65 52.2 27.58 5 1.27 10 2.35 15 3.33 3.06.6 7.05 1.82 9.29-1.13 1.77-2.34 1.46-6.07 1.27-8.79a96.13 96.13 0 0 0 -2.44-15.36c-2.13-9-5.18-17.6-6.26-26.84a53 53 0 0 1 .32-16.73 51.09 51.09 0 0 1 1.88-6.91c1-3 3-5.73 4-8.68 1.17-3.5-.57-9 1.45-12.1.8-1.25 3.8-2.89 4.89-4a32 32 0 0 0 4.81-5.95c2.29-3.68 3.36-7.72 4.85-11.73.88-2.36 2-4.84 4.19-6.24s3.89-.83 6.32-.72c9.33.44 14.17-6.64 19.43-13a16.21 16.21 0 0 1 6.83-5.23c2.09-.77 4.41-.8 6.43-1.77 2.49-1.2 3.48-3.12 3.8-5.73.28-2.38.09-4.85.27-7.25.08-1 0-4.17.6-4.74.91-.84.9.23 1.79.88 2.51 1.87 4.63 2.93 7.82 2 9.56-2.73 18.93-10.53 24.52-18.5 1.11-1.59-1.49-3.09-2.59-1.52a41.51 41.51 0 0 1 -12.67 11.87c-4.08 2.47-10.44 7.69-15 4-1.36-1.1-2.38-3.12-4.47-2.56-2.4.63-2.58 4.07-2.81 6-.48 4 1.13 11-3.26 13.06-3.5 1.67-7 1.51-10.23 4.08-6.85 5.48-9.56 15.43-20 15.39-2.64 0-4.73-.74-7.26.46a12.82 12.82 0 0 0 -5.94 6.78c-1.75 4-2.59 8.31-4.83 12.16a29.35 29.35 0 0 1 -6 7.2c-1.17 1-3.85 2.23-4.68 3.71-.68 1.23-.44 4.3-.55 5.72-.22 2.65-.27 5.22-1.25 7.71-1.74 4.37-3.8 8.28-4.9 12.93-2.17 9.25-1.33 18.67.54 27.9 1.74 8.55 4.85 16.75 6.31 25.37a78.25 78.25 0 0 1 1.08 9c.05.91.45 2.85 0 3.65-1 1.88-4.22 2.86-6 2.75-5.19-.3-10.81-2.2-15.84-3.48-20.52-5.23-39.86-14-54-30.24-26.41-30.25-32.9-72.5-58.16-103.63-11.5-14.17-28.6-27.39-47.84-26.39-8.45.44-16.68 3.86-21.76 10.83s-6.59 19.95-15.67 23.2l1.69.69c-12.94-17-36.52-20.05-49.69-36.45-8.16-10.17-7.51-24.27-13.94-35.44-5.49-9.55-13.47-17.33-21.13-25.11-9.32-9.46-18.58-19.46-22.41-32.64-.54-1.85-3.44-1.06-2.89.79z"/><path d="m263.51 0q-60 2.39-120 2.52a1.52 1.52 0 0 0 -1.51 1.48l-.34 63.4-.54 101.08-.12 23.26 1.5-1.5-139.91 5.27c-1.92.07-1.93 3.07 0 3l139.92-5.27a1.52 1.52 0 0 0 1.5-1.5l.34-63.41.54-101.08.11-23.25-1.5 1.5q60-.13 120-2.52c1.93-.07 1.94-3.08 0-3z"/></g></svg>