<svg xmlns="http://www.w3.org/2000/svg" viewBox="0 0 747.51 459.01"><defs><style>.cls-1{font-size:169.68px;font-family:Bitter-Regular, Bitter;letter-spacing:-0.03em;}.cls-1,.cls-4{fill:#fff;}.cls-2,.cls-3{font-size:123.82px;}.cls-2{letter-spacing:-0.03em;}.cls-3{letter-spacing:-0.03em;}</style></defs><title>Asset 9</title><g id="Layer_2" data-name="Layer 2"><g id="Layer_1-2" data-name="Layer 1"><text class="cls-1" transform="translate(199.51 146.73) scale(1.54 1)">F<tspan class="cls-2" x="91.8" y="0">ood</tspan><tspan x="298.33" y="0"> </tspan><tspan x="0" y="152.87" xml:space="preserve"> F</tspan><tspan class="cls-3" x="125.9" y="152.87">ight</tspan></text></g><g id="tx"><path class="cls-4" d="M.07,197.47c6.65,22.7,27.77,35.12,40.8,53.62a54,54,0,0,1,7.83,15.76c1.91,6.51,2.69,13.31,5.87,19.39,4.7,9,13.18,14.85,21.79,19.72,11.11,6.28,23.37,11.55,31.32,22a1.55,1.55,0,0,0,1.69.69c12.63-4.53,11.91-21.92,22.26-29.26,13.27-9.42,31.49-3.5,43.56,5,26.94,19,37.95,52.85,51.34,81.35,6.67,14.19,14.23,28.26,24.9,39.88,10.85,11.81,24.74,19.81,39.78,25.09a192.33,192.33,0,0,0,24.3,6.55c4.31.9,12.3,4.17,14.71-1.4s0-14.22-1.15-19.87c-1.41-6.83-3.76-13.4-5.29-20.2-2.22-9.93-3.19-20.09-.48-30,1.18-4.33,3.72-8,5.09-12.18,1.12-3.42-.61-8.85,1.37-11.92.74-1.15,3.24-2.42,4.29-3.39a32.43,32.43,0,0,0,3.84-4.27,37.77,37.77,0,0,0,5.41-10.92c1.42-4.22,3-9.93,8.31-10.33,3.49-.26,6,.48,9.57-.7,1.82-.61,1-3.51-.8-2.89-5.36,1.78-10.64-.88-15.12,3.42-4.73,4.56-5,12.24-8.39,17.66a29.16,29.16,0,0,1-4.94,5.91c-1.34,1.21-3.58,2.19-4.67,3.56-1.58,2-1.11,5.69-1.32,8.15-.66,8-5.58,15.08-6.81,23.2-2.15,14.21,2.61,27.66,6,41.21a98.16,98.16,0,0,1,2.37,12.83c.22,1.9.78,4.33.43,6.22-.78,4.28-4.28,4.5-7.66,3.83a219.94,219.94,0,0,1-24.42-6.07c-16.52-5.27-31.74-13.66-43.34-26.75-11.21-12.65-18.83-28-25.79-43.29-12.42-27.26-23.79-58-48.87-76.43-11.58-8.49-27.35-14.15-41.49-9a26.71,26.71,0,0,0-14.75,13.28c-3.35,6.43-5.45,16.15-13,18.87l1.69.69c-12.94-17-36.52-20.05-49.69-36.45-8.16-10.17-7.51-24.27-13.94-35.44-5.49-9.55-13.47-17.33-21.13-25.11C16.09,219.86,6.83,209.86,3,196.68c-.54-1.85-3.44-1.06-2.89.79Z"/><path class="cls-4" d="M263.51,0q-60,2.39-120,2.52A1.52,1.52,0,0,0,142,4l-.34,63.4-.54,101.08L141,191.74l1.5-1.5L2.59,195.51c-1.92.07-1.93,3.07,0,3l139.92-5.27a1.52,1.52,0,0,0,1.5-1.5l.34-63.41.54-101.08L145,4l-1.5,1.5q60-.13,120-2.52c1.93-.07,1.94-3.08,0-3Z"/></g></g></svg>